# Blender v2.82 (sub 7) OBJ File: 'bow_01.blend'
# www.blender.org
mtllib arrow.mtl
o Arrow_Cube.020
v 7.464783 -1.443855 0.011082
v 7.464783 2.688219 0.011082
v 7.464783 -1.443855 -0.011081
v 7.464783 2.688219 -0.011081
v 7.486946 -1.443855 0.011082
v 7.486946 2.688219 0.011082
v 7.486946 -1.443855 -0.011081
v 7.486946 2.688219 -0.011081
v 7.366950 -1.421655 0.024617
v 7.366950 -1.421655 -0.024617
v 7.475864 -1.704115 -0.000000
v 7.584779 -1.421655 0.024617
v 7.584779 -1.421655 -0.024617
v 7.642178 2.423045 0.004735
v 7.642178 2.732082 0.004735
v 7.486081 2.297062 0.004735
v 7.486081 2.628633 0.004735
v 7.642178 2.423045 -0.004735
v 7.642178 2.732082 -0.004735
v 7.486081 2.297062 -0.004735
v 7.486081 2.628633 -0.004735
v 7.309551 2.423045 0.004735
v 7.309551 2.732082 0.004735
v 7.465648 2.297062 0.004735
v 7.465648 2.628633 0.004735
v 7.309551 2.423045 -0.004735
v 7.309551 2.732082 -0.004735
v 7.465648 2.297062 -0.004735
v 7.465648 2.628633 -0.004735
vt 0.625000 0.000000
vt 0.375000 0.250000
vt 0.375000 0.000000
vt 0.625000 0.250000
vt 0.375000 0.500000
vt 0.625000 0.500000
vt 0.375000 0.750000
vt 0.625000 0.750000
vt 0.375000 1.000000
vt 0.125000 0.750000
vt 0.125000 0.500000
vt 0.875000 0.500000
vt 0.625000 1.000000
vt 0.875000 0.750000
vt 0.250000 0.500000
vt 0.625000 0.000000
vt 0.625000 0.250000
vt 0.625000 0.500000
vt 0.625000 0.750000
vt 0.625000 1.000000
vt 0.875000 0.500000
vt 0.875000 0.750000
vt 0.375000 0.106209
vt 0.625000 0.250000
vt 0.375000 0.250000
vt 0.375000 0.500000
vt 0.625000 0.500000
vt 0.375000 0.643791
vt 0.625000 0.643791
vt 0.352943 1.000001
vt 0.125000 0.643791
vt 0.125000 0.500000
vt 0.875000 0.643791
vt 0.375000 0.106209
vt 0.625000 0.250000
vt 0.625000 0.106209
vt 0.375000 0.500000
vt 0.375000 0.250000
vt 0.375000 0.643791
vt 0.625000 0.500000
vt 0.352943 1.000001
vt 0.625000 0.643791
vt 0.125000 0.643791
vt 0.125000 0.500000
vt 0.875000 0.500000
vt 0.625000 0.106209
vt 0.602943 1.000000
vt 0.875000 0.500000
vt 0.602943 1.000000
vt 0.875000 0.643791
vn -1.0000 0.0000 0.0000
vn 0.0000 0.0000 -1.0000
vn 1.0000 0.0000 0.0000
vn 0.0000 0.0000 1.0000
vn 0.0000 -1.0000 0.0000
vn 0.0000 1.0000 0.0000
vn -0.9330 -0.3598 0.0000
vn 0.9330 -0.3598 0.0000
vn 0.0000 -0.0868 -0.9962
vn 0.0000 -0.0868 0.9962
vn 0.6280 -0.7782 0.0000
vn -0.5524 0.8336 0.0000
vn -0.6280 -0.7782 0.0000
vn 0.5524 0.8336 0.0000
vn -0.6281 -0.7782 0.0000
usemtl Brown_woodArrow
s off
f 2/1/1 3/2/1 1/3/1
f 4/4/2 7/5/2 3/2/2
f 8/6/3 5/7/3 7/5/3
f 6/8/4 1/9/4 5/7/4
f 7/5/5 1/10/5 3/11/5
f 4/12/6 6/8/6 8/6/6
f 2/1/1 4/4/1 3/2/1
f 4/4/2 8/6/2 7/5/2
f 8/6/3 6/8/3 5/7/3
f 6/8/4 2/13/4 1/9/4
f 7/5/5 5/7/5 1/10/5
f 4/12/6 2/14/6 6/8/6
usemtl Iron_arrow
f 11/15/7 9/16/7 10/17/7
f 11/15/8 13/18/8 12/19/8
f 11/15/9 10/17/9 13/18/9
f 11/15/10 12/19/10 9/20/10
f 10/21/6 12/19/6 13/18/6
f 10/21/6 9/22/6 12/19/6
usemtl Red_arrow
f 14/23/4 17/24/4 16/25/4
f 17/24/1 20/26/1 16/25/1
f 21/27/2 18/28/2 20/26/2
f 19/29/3 14/30/3 18/28/3
f 20/26/11 14/31/11 16/32/11
f 21/27/12 15/33/12 19/29/12
f 22/34/4 25/35/4 23/36/4
f 28/37/3 25/35/3 24/38/3
f 26/39/2 29/40/2 28/37/2
f 22/41/1 27/42/1 26/39/1
f 22/43/13 28/37/13 24/44/13
f 27/42/14 25/45/14 29/40/14
f 14/23/4 15/46/4 17/24/4
f 17/24/1 21/27/1 20/26/1
f 21/27/2 19/29/2 18/28/2
f 19/29/3 15/47/3 14/30/3
f 20/26/11 18/28/11 14/31/11
f 21/27/12 17/48/12 15/33/12
f 22/34/4 24/38/4 25/35/4
f 28/37/3 29/40/3 25/35/3
f 26/39/2 27/42/2 29/40/2
f 22/41/1 23/49/1 27/42/1
f 22/43/15 26/39/15 28/37/15
f 27/42/14 23/50/14 25/45/14
